<?xml version="1.0" standalone="no"?>
<!DOCTYPE svg PUBLIC "-//W3C//DTD SVG 20010904//EN"
 "http://www.w3.org/TR/2001/REC-SVG-20010904/DTD/svg10.dtd">
<svg version="1.0" xmlns="http://www.w3.org/2000/svg"
 width="500.000000pt" height="500.000000pt" viewBox="0 0 500.000000 500.000000"
 preserveAspectRatio="xMidYMid meet">

<g transform="translate(0.000000,500.000000) scale(0.100000,-0.100000)"
fill="#000000" stroke="none">
<path d="M0 2500 l0 -2500 2500 0 2500 0 0 2500 0 2500 -2500 0 -2500 0 0
-2500z m3044 484 c13 -5 16 -22 16 -85 l0 -78 43 -11 c23 -6 52 -15 65 -20
l22 -10 0 -439 c0 -253 -4 -442 -9 -445 -5 -4 -38 2 -73 11 -44 13 -100 18
-188 17 -140 0 -236 -21 -344 -75 -33 -16 -69 -29 -80 -29 -12 0 -52 16 -91
35 -94 47 -169 65 -300 72 -92 5 -124 2 -194 -15 -46 -12 -87 -19 -92 -16 -5
3 -9 203 -9 444 l0 439 60 22 59 21 3 77 3 76 90 -1 c74 -1 102 -6 158 -29 95
-38 182 -97 253 -171 l61 -62 79 76 c111 108 241 173 379 192 33 4 63 8 67 9
3 0 13 -2 22 -5z m-1486 -596 c7 -7 12 -27 12 -45 0 -26 -6 -36 -25 -45 -55
-25 -109 39 -70 82 20 22 65 26 83 8z m1967 -8 c39 -43 -15 -107 -70 -82 -19
9 -25 19 -25 45 0 18 5 38 12 45 18 18 63 14 83 -8z"/>
<path d="M1894 2750 c-20 -8 -21 -15 -28 -395 -3 -213 -5 -390 -2 -392 2 -2
24 1 47 8 26 8 97 13 174 13 106 0 143 -4 203 -23 41 -12 76 -20 78 -18 8 8
-87 72 -155 107 -66 33 -169 60 -232 60 -24 0 -39 5 -43 16 -3 9 -6 155 -6
325 0 170 -3 309 -7 308 -5 0 -17 -4 -29 -9z"/>
<path d="M3058 2444 l-3 -319 -65 -6 c-127 -12 -229 -54 -337 -141 -35 -27
-63 -51 -63 -53 0 -1 33 8 74 21 115 36 236 49 349 35 53 -6 102 -14 111 -17
14 -6 16 32 16 384 l0 390 -24 6 c-13 3 -31 9 -40 12 -14 5 -16 -27 -18 -312z"/>
</g>
</svg>
